<svg width="32" height="36" viewBox="0 0 32 36" fill="none" xmlns="http://www.w3.org/2000/svg">
<g id="trash-solid 1" clip-path="url(#clip0_15_18)">
<path id="Vector" d="M9.65714 1.24453L9.14286 2.25H2.28571C1.02143 2.25 0 3.25547 0 4.5C0 5.74453 1.02143 6.75 2.28571 6.75H29.7143C30.9786 6.75 32 5.74453 32 4.5C32 3.25547 30.9786 2.25 29.7143 2.25H22.8571L22.3429 1.24453C21.9571 0.478125 21.1643 0 20.3 0H11.7C10.8357 0 10.0429 0.478125 9.65714 1.24453ZM29.7143 9H2.28571L3.8 32.8359C3.91429 34.6148 5.41429 36 7.22143 36H24.7786C26.5857 36 28.0857 34.6148 28.2 32.8359L29.7143 9Z" fill="#F5F5F5"/>
</g>
<defs>
<clipPath id="clip0_15_18">
<rect width="32" height="36" fill="white"/>
</clipPath>
</defs>
</svg>
